<svg width="600" height="267" xmlns="http://www.w3.org/2000/svg" xmlns:xlink="http://www.w3.org/1999/xlink" xml:space="preserve" overflow="hidden"><defs><clipPath id="clip0"><rect x="340" y="226" width="600" height="267"/></clipPath></defs><g clip-path="url(#clip0)" transform="translate(-340 -226)"><path d="M556.967 492.99C549.2 493.001 541.747 489.918 536.257 484.424L515.386 463.553C503.951 452.11 503.951 433.565 515.386 422.122L536.257 401.251C547.704 389.827 566.24 389.827 577.688 401.251L598.559 422.122C609.994 433.565 609.994 452.11 598.559 463.553L577.678 484.424C572.188 489.92 564.736 493.004 556.967 492.99ZM536.047 442.903 556.927 463.773C556.966 463.82 557.035 463.827 557.082 463.788 557.087 463.784 557.092 463.779 557.097 463.773L577.928 442.903C577.966 442.853 577.966 442.783 577.928 442.733L557.037 421.912C556.998 421.865 556.929 421.858 556.882 421.897 556.877 421.901 556.872 421.906 556.867 421.912L536.047 442.753C536 442.8 536 442.876 536.047 442.923 536.047 442.923 536.047 442.923 536.047 442.923ZM807.035 408.988C799.267 408.999 791.815 405.916 786.324 400.422L682.711 296.858C671.277 285.418 671.277 266.877 682.711 255.437L703.581 234.566C715.029 223.142 733.565 223.142 745.013 234.566L848.586 338.14C860.021 349.582 860.021 368.128 848.586 379.571L827.716 400.442C822.221 405.937 814.765 409.02 806.995 409.008ZM724.292 255.157C724.267 255.144 724.237 255.144 724.212 255.157L703.342 276.068C703.295 276.114 703.295 276.19 703.342 276.237 703.342 276.237 703.342 276.237 703.342 276.237L703.342 276.237 806.925 379.811C806.964 379.858 807.033 379.865 807.08 379.826 807.085 379.822 807.09 379.817 807.095 379.811L827.916 358.94C827.953 358.89 827.953 358.82 827.916 358.77L724.382 255.187C724.357 255.165 724.325 255.154 724.292 255.157ZM889.698 326.305C881.93 326.316 874.478 323.234 868.987 317.739L848.116 296.858C836.683 285.418 836.683 266.877 848.116 255.437L868.987 234.566C880.432 223.143 898.964 223.143 910.409 234.566L931.289 255.437C942.724 266.88 942.724 285.425 931.289 296.868L910.418 317.739C904.924 323.234 897.468 326.317 889.698 326.305ZM889.618 255.187 868.747 276.068C868.7 276.114 868.7 276.19 868.747 276.237 868.747 276.237 868.747 276.237 868.747 276.237L889.628 297.108C889.667 297.155 889.736 297.162 889.783 297.123 889.788 297.119 889.793 297.114 889.798 297.108L910.668 276.237C910.706 276.187 910.706 276.118 910.668 276.068L889.788 255.187C889.741 255.14 889.665 255.14 889.618 255.187 889.618 255.187 889.618 255.187 889.618 255.187ZM723.692 493C715.918 493.02 708.458 489.932 702.972 484.424L557.037 338.489C556.99 338.442 556.914 338.442 556.867 338.489 556.867 338.489 556.867 338.489 556.867 338.489L411.003 484.424C399.55 495.837 381.024 495.837 369.572 484.424L348.701 463.553C337.277 452.105 337.277 433.57 348.701 422.122L504.991 265.842 504.991 265.842 536.257 234.566C547.701 223.143 566.233 223.143 577.678 234.566L765.244 422.122C776.657 433.575 776.657 452.1 765.244 463.553L744.373 484.424C738.887 489.932 731.427 493.02 723.652 493ZM556.967 255.157C556.942 255.144 556.912 255.144 556.887 255.157L369.322 442.753C369.275 442.8 369.275 442.876 369.321 442.923 369.321 442.923 369.322 442.923 369.322 442.923L390.202 463.793C390.241 463.84 390.31 463.847 390.357 463.808 390.363 463.804 390.368 463.799 390.372 463.793L556.967 298.467 723.572 463.793C723.622 463.831 723.692 463.831 723.742 463.793L744.613 442.903C744.66 442.864 744.667 442.795 744.628 442.748 744.624 442.743 744.619 442.738 744.613 442.733L557.037 255.187C557.017 255.171 556.993 255.16 556.967 255.157Z" fill="#0031E2"/></g></svg>