<svg width="217" height="96" xmlns="http://www.w3.org/2000/svg" xmlns:xlink="http://www.w3.org/1999/xlink" xml:space="preserve" overflow="hidden"><defs><clipPath id="clip0"><rect x="285" y="545" width="217" height="96"/></clipPath></defs><g clip-path="url(#clip0)" transform="translate(-285 -545)"><path d="M77.9623 95.9964C75.1694 96.0004 72.4898 94.892 70.5157 92.9164L63.0117 85.4124C58.9003 81.2981 58.9003 74.63 63.0117 70.5157L70.5157 63.0117C74.6318 58.9042 81.2963 58.9042 85.4124 63.0117L92.9164 70.5157C97.0279 74.63 97.0279 81.2981 92.9164 85.4124L85.4088 92.9164C83.435 94.8927 80.7554 96.0014 77.9623 95.9964ZM70.4403 77.9874 77.9479 85.4915C77.9619 85.5084 77.9867 85.5109 78.0036 85.4969 78.0054 85.4954 78.0072 85.4936 78.009 85.4915L85.4986 77.9874C85.5123 77.9695 85.5123 77.9443 85.4986 77.9263L77.9874 70.4403C77.9734 70.4234 77.9486 70.4208 77.9317 70.4349 77.9299 70.4363 77.9281 70.4381 77.9263 70.4403L70.4403 77.9335C70.4234 77.9504 70.4234 77.9777 70.4403 77.9946 70.4403 77.9946 70.4403 77.9946 70.4403 77.9946ZM167.874 65.7934C165.081 65.7973 162.402 64.6889 160.428 62.7134L123.173 25.4771C119.062 21.3638 119.062 14.6973 123.173 10.584L130.677 3.07996C134.794-1.02761 141.458-1.02761 145.574 3.07996L182.814 40.3199C186.925 44.4341 186.925 51.1022 182.814 55.2165L175.31 62.7206C173.334 64.6965 170.654 65.8049 167.86 65.8005ZM138.124 10.4834C138.115 10.4789 138.104 10.4789 138.095 10.4834L130.591 18.0018C130.574 18.0186 130.574 18.0459 130.591 18.0628 130.591 18.0628 130.591 18.0629 130.591 18.0629L130.591 18.0629 167.835 55.3028C167.849 55.3197 167.873 55.3222 167.89 55.3082 167.892 55.3067 167.894 55.3049 167.896 55.3028L175.382 47.7987C175.396 47.7808 175.396 47.7556 175.382 47.7376L138.156 10.4942C138.147 10.4863 138.136 10.4824 138.124 10.4834ZM197.596 36.0647C194.803 36.0686 192.123 34.9605 190.149 32.9847L182.645 25.4771C178.534 21.3638 178.534 14.6973 182.645 10.584L190.149 3.07996C194.264-1.0272 200.927-1.0272 205.042 3.07996L212.55 10.584C216.661 14.6985 216.661 21.3662 212.55 25.4807L205.046 32.9847C203.07 34.9607 200.39 36.069 197.596 36.0647ZM197.567 10.4942 190.063 18.0018C190.046 18.0186 190.046 18.0459 190.063 18.0628 190.063 18.0628 190.063 18.0629 190.063 18.0629L197.571 25.5669C197.585 25.5838 197.609 25.5862 197.626 25.5724 197.628 25.5707 197.63 25.5689 197.632 25.5669L205.136 18.0629C205.149 18.0449 205.149 18.0198 205.136 18.0018L197.628 10.4942C197.611 10.4773 197.584 10.4772 197.567 10.4941 197.567 10.4941 197.567 10.4941 197.567 10.4942ZM137.908 96C135.113 96.0072 132.431 94.897 130.458 92.9164L77.9874 40.4456C77.9705 40.4287 77.9432 40.4287 77.9263 40.4456 77.9263 40.4456 77.9263 40.4456 77.9263 40.4456L25.4807 92.9164C21.3629 97.02 14.7017 97.02 10.584 92.9164L3.07996 85.4124C-1.02761 81.2963-1.02761 74.6318 3.07996 70.5157L59.274 14.3252 59.274 14.3252 70.5157 3.07996C74.6307-1.0272 81.2938-1.0272 85.4088 3.07996L152.848 70.5157C156.952 74.6336 156.952 81.2945 152.848 85.4124L145.344 92.9164C143.371 94.897 140.689 96.0072 137.894 96ZM77.9623 10.4834C77.9533 10.4789 77.9425 10.4789 77.9335 10.4834L10.4942 77.9335C10.4773 77.9504 10.4772 77.9777 10.4941 77.9946 10.4941 77.9946 10.4941 77.9946 10.4942 77.9946L18.0018 85.4986C18.0157 85.5155 18.0406 85.5181 18.0574 85.504 18.0594 85.5026 18.0612 85.5008 18.0629 85.4986L77.9623 26.0557 137.865 85.4986C137.883 85.5123 137.908 85.5123 137.926 85.4986L145.43 77.9874C145.447 77.9734 145.45 77.9486 145.436 77.9317 145.434 77.9299 145.433 77.9281 145.43 77.9263L77.9874 10.4942C77.9802 10.4883 77.9716 10.4846 77.9623 10.4834Z" fill="#FFFFFF" transform="matrix(1.00589 0 0 1 285.049 545)"/></g></svg>