<svg width="600" height="298" xmlns="http://www.w3.org/2000/svg" xmlns:xlink="http://www.w3.org/1999/xlink" xml:space="preserve" overflow="hidden"><defs><clipPath id="clip0"><rect x="354" y="211" width="600" height="298"/></clipPath></defs><g clip-path="url(#clip0)" transform="translate(-354 -211)"><path d="M251.994 149.712C247.637 149.721 243.456 147.991 240.38 144.905L228.667 133.202C222.257 126.786 222.257 116.391 228.667 109.975L240.37 98.2718C246.791 91.8656 257.187 91.8656 263.607 98.2718L275.31 109.975C281.721 116.391 281.721 126.786 275.31 133.202L263.607 144.905C260.529 147.988 256.351 149.717 251.994 149.712ZM240.241 121.638 251.944 133.351C251.966 133.376 252.004 133.378 252.029 133.356 252.031 133.355 252.032 133.353 252.034 133.351L263.717 121.638C263.737 121.608 263.737 121.568 263.717 121.539L252.004 109.836C251.982 109.811 251.944 109.809 251.919 109.831 251.917 109.832 251.916 109.834 251.914 109.836L240.211 121.539C240.183 121.565 240.183 121.609 240.21 121.637 240.21 121.637 240.211 121.638 240.211 121.638ZM392.192 102.621C387.835 102.63 383.654 100.9 380.578 97.8141L322.501 39.7366C316.087 33.3335 316.078 22.9432 322.481 16.5292 322.488 16.5227 322.494 16.5161 322.501 16.5097L334.204 4.80661C340.62-1.60398 351.015-1.60398 357.431 4.80661L415.508 62.884C421.919 69.2994 421.919 79.6956 415.508 86.111L403.805 97.8141C400.727 100.897 396.547 102.627 392.192 102.621ZM345.817 16.3504 345.768 16.3504 334.065 28.0734C334.045 28.1036 334.045 28.1428 334.065 28.1729L334.065 28.1729 392.142 86.2503C392.172 86.2704 392.212 86.2704 392.241 86.2503L403.944 74.5473C403.964 74.5171 403.964 74.4779 403.944 74.4478L345.867 16.3703ZM438.566 56.2463C434.199 56.2623 430.007 54.5317 426.923 51.4397L415.249 39.7366C408.836 33.3335 408.827 22.9432 415.23 16.5292 415.237 16.5227 415.243 16.5161 415.249 16.5097L426.923 4.80661C433.338-1.60398 443.734-1.60398 450.15 4.80661L461.853 16.5097C468.264 22.9251 468.264 33.3213 461.853 39.7366L450.18 51.4397C447.102 54.5225 442.922 56.2522 438.566 56.2463ZM438.516 16.3703 426.813 28.0734C426.793 28.1036 426.793 28.1428 426.813 28.1729L438.516 39.876C438.546 39.8961 438.586 39.8961 438.616 39.876L450.319 28.1729C450.339 28.1428 450.339 28.1036 450.319 28.0734L438.616 16.3703C438.589 16.3429 438.545 16.3424 438.517 16.3694 438.517 16.3696 438.516 16.37 438.516 16.3703ZM345.459 149.721C341.099 149.734 336.917 148 333.846 144.905L252.034 63.103C252.008 63.0813 251.97 63.0813 251.944 63.103L170.172 144.905C163.751 151.311 153.356 151.311 146.935 144.905L135.232 133.202C128.832 126.782 128.832 116.395 135.232 109.975L222.866 22.3413 222.866 22.3413 240.37 4.80661C246.791-1.59964 257.187-1.59964 263.607 4.80661L368.776 109.975C375.175 116.395 375.175 126.782 368.776 133.202L357.073 144.905C354 147.998 349.818 149.732 345.459 149.721ZM251.994 16.3703 251.944 16.3703 146.766 121.539C146.746 121.568 146.746 121.608 146.766 121.638L158.479 133.351C158.501 133.376 158.539 133.378 158.563 133.356 158.565 133.355 158.566 133.353 158.568 133.351L251.994 40.6422 345.409 133.351C345.439 133.371 345.479 133.371 345.509 133.351L357.262 121.638C357.282 121.608 357.282 121.568 357.262 121.539L252.034 16.3703Z" fill="#0031E2" transform="matrix(1.00336 0 0 1 354.451 211)"/><path d="M339.09 270.683 356.704 208.505 369.94 208.505 344.962 290.487 332.582 290.487 314.669 227.503 313.385 227.503 295.472 290.487 283.053 290.487 258.074 208.505 271.31 208.505 288.924 270.902C288.983 271.122 289.184 271.273 289.412 271.27L289.491 271.27C289.719 271.268 289.92 271.119 289.989 270.902L307.384 208.505 320.839 208.505 338.025 270.683C338.084 270.905 338.284 271.06 338.513 271.061L338.602 271.061C338.831 271.06 339.031 270.905 339.09 270.683ZM449.095 229.105C451.125 234.34 452.137 240.781 452.13 248.431L452.13 253.765 392.61 253.765C392.659 258.585 393.749 263.338 395.804 267.697 397.751 271.772 400.869 275.171 404.761 277.46 408.848 279.748 413.473 280.899 418.155 280.794 421.2 280.832 424.228 280.354 427.112 279.381 429.72 278.488 432.098 277.03 434.078 275.111 436.105 273.106 437.655 270.671 438.616 267.986L450.787 271.399C449.531 275.485 447.316 279.21 444.328 282.267 441.191 285.487 437.392 287.986 433.192 289.591 428.395 291.38 423.305 292.258 418.185 292.178 410.297 292.178 403.494 290.427 397.775 286.924 392.043 283.398 387.462 278.281 384.589 272.196 381.517 265.873 379.978 258.515 379.971 250.123 379.818 242.459 381.396 234.86 384.589 227.891 387.417 221.77 391.897 216.558 397.526 212.844 403.317 209.16 410.07 207.275 416.931 207.431 421.236 207.434 425.511 208.154 429.58 209.56 433.817 211.031 437.691 213.389 440.944 216.477 444.579 220.003 447.365 224.307 449.095 229.065ZM439.322 242.818C439.398 238.529 438.458 234.284 436.576 230.429 434.828 226.897 432.129 223.922 428.784 221.841 425.206 219.685 421.087 218.593 416.911 218.696 412.303 218.577 407.769 219.869 403.915 222.398 400.317 224.818 397.418 228.14 395.506 232.031 393.839 235.399 392.864 239.067 392.639 242.818ZM529.882 220.826C532.024 224.707 533.093 229.901 533.086 236.41L533.086 290.427 520.468 290.427 520.468 279.341 519.831 279.341C518.724 281.461 517.282 283.391 515.561 285.053 513.269 287.278 510.565 289.036 507.6 290.228 503.746 291.753 499.623 292.481 495.479 292.367 490.603 292.43 485.773 291.41 481.338 289.382 472.595 285.521 467.11 276.699 467.515 267.15 467.515 262.453 468.441 258.639 470.292 255.706 472.112 252.776 474.668 250.375 477.706 248.74 480.943 247.018 484.402 245.752 487.986 244.978 491.734 244.142 495.516 243.478 499.33 242.988 504.306 242.324 508.353 241.836 511.471 241.525 513.838 241.389 516.156 240.798 518.298 239.783 519.78 238.895 520.62 237.234 520.458 235.514L520.458 235.086C520.458 229.825 519.028 225.735 516.168 222.816 513.309 219.897 508.976 218.437 503.172 218.437 497.148 218.437 492.431 219.764 489.021 222.418 485.98 224.612 483.509 227.502 481.816 230.847L481.816 230.847 469.874 226.578C471.693 222.042 474.635 218.042 478.422 214.954 481.894 212.215 485.891 210.217 490.165 209.083 494.265 207.988 498.489 207.426 502.734 207.411 505.787 207.453 508.83 207.762 511.83 208.336 515.349 209.003 518.72 210.297 521.781 212.158 525.204 214.271 527.99 217.274 529.842 220.845ZM520.468 249.237C519.484 250.126 518.276 250.729 516.974 250.979 514.939 251.545 512.872 251.991 510.785 252.312 508.456 252.683 506.197 253.016 504.008 253.307L498.693 253.974C495.583 254.366 492.517 255.056 489.538 256.034 486.942 256.835 484.593 258.284 482.711 260.244 480.898 262.352 479.971 265.08 480.124 267.857 480.124 272.235 481.753 275.536 485.01 277.758 488.267 279.981 492.401 281.092 497.41 281.092 501.803 281.236 506.158 280.224 510.038 278.157 513.278 276.385 515.972 273.764 517.83 270.573 519.569 267.585 520.478 264.189 520.468 260.731ZM593.97 207.232C592.577 207.232 591.422 207.182 590.497 207.182 585.809 207.119 581.205 208.438 577.261 210.973 573.65 213.216 570.857 216.562 569.3 220.517 569.226 220.712 569.041 220.842 568.832 220.845L568.832 220.845C568.552 220.845 568.325 220.619 568.325 220.338L568.325 208.466 556.104 208.466 556.104 290.447 568.703 290.447 568.703 238.569C568.642 235.079 569.578 231.645 571.4 228.667 573.193 225.765 575.738 223.404 578.764 221.831 582.054 220.136 585.712 219.285 589.412 219.353 591.011 219.349 592.608 219.465 594.189 219.701 595.701 219.93 596.667 220.099 597.095 220.209L597.095 207.401C596.378 207.321 595.333 207.271 593.95 207.232Z" fill="#0031E2" transform="matrix(1.00336 0 0 1 354.451 211)"/><path d="M29.2377 208.983 0 290.009 5.22458 290.009 14.4795 264.135 49.6882 264.135 58.9432 290.009 64.1678 290.009 34.93 208.983ZM16.1216 259.507 31.845 215.352 32.2431 215.352 48.0164 259.507Z" fill="#0031E2" transform="matrix(1.00336 0 0 1 354.451 211)"/><path d="M120.225 253.178C123.794 251.308 126.742 248.442 128.714 244.928 130.753 241.173 131.782 236.951 131.699 232.678 131.783 228.37 130.755 224.113 128.714 220.318 126.738 216.78 123.785 213.887 120.205 211.989 116.12 209.902 111.575 208.876 106.989 209.003L82.0309 209.003 82.0309 290.029 87.0066 290.029 87.0066 256.193 107.059 256.193C108.429 256.191 109.798 256.112 111.159 255.955L129.57 290.059 135.272 290.059 116.155 254.86C117.561 254.426 118.923 253.864 120.225 253.178ZM106.91 251.516 87.0066 251.516 87.0066 213.571 106.91 213.571C110.607 213.475 114.271 214.292 117.578 215.949 120.459 217.449 122.831 219.77 124.395 222.617 126.036 225.712 126.855 229.176 126.773 232.678 126.861 236.146 126.041 239.576 124.395 242.629 122.822 245.433 120.458 247.711 117.598 249.178 114.281 250.821 110.61 251.624 106.91 251.516Z" fill="#0031E2" transform="matrix(1.00336 0 0 1 354.451 211)"/><path d="M148.866 208.983 148.866 213.571 174.78 213.571 174.78 290.009 179.725 290.009 179.725 213.571 205.629 213.571 205.629 208.983 148.866 208.983Z" fill="#0031E2" transform="matrix(1.00336 0 0 1 354.451 211)"/><path d="M239.913 201.022 213.8 298.03 209.172 298.03 235.285 201.022Z" fill="#0031E2" transform="matrix(1.00336 0 0 1 354.451 211)"/></g></svg>